<svg width="93" height="86" viewBox="0 0 93 86" fill="none" xmlns="http://www.w3.org/2000/svg">
<g clip-path="url(#clip0_1121_1054)">
<path d="M43.751 83.1166C43.7664 82.7765 43.8493 82.4428 43.9948 82.1349C44.1403 81.827 44.3455 81.551 44.5985 81.3229C44.8515 81.0947 45.1474 80.919 45.4689 80.8059C45.7904 80.6928 46.1312 80.6446 46.4715 80.664C46.8118 80.6834 47.1449 80.77 47.4514 80.9189C47.758 81.0678 48.0319 81.276 48.2573 81.5314C48.4827 81.7868 48.6552 82.0843 48.7646 82.4068C48.8741 82.7292 48.9184 83.0702 48.895 83.4098C48.8485 84.0856 48.5372 84.7157 48.0285 85.1637C47.5199 85.6116 46.8549 85.8411 46.1779 85.8026C45.501 85.764 44.8665 85.4604 44.4122 84.9575C43.9578 84.4547 43.7202 83.7933 43.751 83.1166ZM22.6509 80.3324C22.9457 79.8838 23.4067 79.5706 23.9327 79.4617C24.4586 79.3527 25.0064 79.457 25.4554 79.7514C25.9044 80.0458 26.218 80.5064 26.3271 81.0318C26.4361 81.5571 26.3318 82.1042 26.037 82.5527C25.891 82.7748 25.7027 82.966 25.4827 83.1154C25.2628 83.2648 25.0155 83.3694 24.7551 83.4233C24.4946 83.4773 24.2261 83.4794 23.9648 83.4297C23.7036 83.38 23.4546 83.2793 23.2323 83.1335C23.01 82.9877 22.8186 82.7996 22.669 82.5799C22.5195 82.3602 22.4147 82.1132 22.3607 81.853C22.3067 81.5929 22.3046 81.3247 22.3543 81.0637C22.4041 80.8027 22.5049 80.5541 22.6509 80.332V80.3324ZM67.9077 79.5391C68.1451 79.4191 68.4038 79.3471 68.6691 79.3271C68.9344 79.3072 69.201 79.3397 69.4537 79.4229C69.7063 79.5061 69.9401 79.6382 70.1415 79.8118C70.343 79.9853 70.5082 80.1969 70.6276 80.4343C70.8081 80.7916 70.8784 81.1942 70.8297 81.5914C70.781 81.9886 70.6155 82.3624 70.3541 82.6656C70.0927 82.9688 69.7472 83.1878 69.3612 83.2948C68.9752 83.4019 68.5661 83.3922 68.1856 83.2669C67.8051 83.1417 67.4704 82.9066 67.2237 82.5913C66.977 82.2761 66.8295 81.8948 66.7997 81.4958C66.77 81.0967 66.8594 80.6978 67.0566 80.3496C67.2538 80.0013 67.55 79.7192 67.9077 79.5391ZM27.5421 69.6255C27.9963 68.9327 28.7074 68.4483 29.519 68.279C30.3307 68.1097 31.1764 68.2693 31.8702 68.7227C32.564 69.1771 33.0488 69.888 33.2181 70.6993C33.3875 71.5105 33.2275 72.3557 32.7733 73.0492C32.3164 73.7365 31.6057 74.2153 30.7966 74.381C29.9874 74.5468 29.1455 74.386 28.4546 73.9339C27.7636 73.4817 27.2799 72.7748 27.1089 71.9676C26.938 71.1604 27.0937 70.3185 27.5421 69.6255ZM61.5543 68.4731C61.9202 68.2867 62.3192 68.1742 62.7287 68.142C63.1381 68.1099 63.5499 68.1587 63.9404 68.2856C64.3309 68.4126 64.6926 68.6152 65.0046 68.8819C65.3166 69.1487 65.573 69.4742 65.7589 69.84C66.0386 70.3873 66.1506 71.0048 66.081 71.6154C66.0113 72.226 65.7631 72.8025 65.3674 73.273C64.9716 73.7434 64.4458 74.087 63.8557 74.2607C63.2656 74.4345 62.6373 74.4307 62.0494 74.2498C61.4614 74.069 60.9399 73.7191 60.5498 73.2438C60.1598 72.7686 59.9186 72.1891 59.8564 71.5778C59.7941 70.9664 59.9136 70.3503 60.1999 69.8064C60.4862 69.2625 60.9266 68.8149 61.466 68.5195L61.5543 68.4731ZM42.9623 66.5651C43.2809 65.9104 43.7869 65.3649 44.4161 64.9976C45.0454 64.6304 45.7696 64.458 46.497 64.5022C48.5212 64.623 50.0655 66.3583 49.9489 68.3809C49.9181 68.9242 49.7669 69.454 49.5062 69.9319C49.2456 70.4098 48.882 70.824 48.4417 71.1445C48.0014 71.4651 47.4953 71.684 46.96 71.7855C46.4248 71.887 45.8736 71.8686 45.3463 71.7316C44.819 71.5945 44.3288 71.3423 43.9109 70.9931C43.493 70.6438 43.158 70.2063 42.9299 69.712C42.7018 69.2178 42.5864 68.6791 42.592 68.1349C42.5976 67.5907 42.7241 67.0546 42.9623 66.5651ZM10.4014 60.8728C11.0098 60.5703 11.7131 60.5202 12.3583 60.7334C13.0035 60.9465 13.5382 61.4056 13.8461 62.0107C14.154 62.6158 14.2101 63.3179 14.0021 63.9641C13.7942 64.6104 13.3391 65.1483 12.7359 65.461C12.1327 65.7736 11.4303 65.8355 10.7816 65.6333C10.133 65.431 9.59054 64.981 9.2725 64.3811C8.95446 63.7813 8.88656 63.0802 9.08357 62.4306C9.28058 61.781 9.72655 61.2354 10.3244 60.9127L10.401 60.8728H10.4014ZM79.3682 61.6047C79.5519 61.3184 79.7907 61.0713 80.0707 60.8777C80.3507 60.6841 80.6663 60.5479 80.9993 60.4769C81.3323 60.4059 81.676 60.4016 82.0107 60.4641C82.3454 60.5266 82.6644 60.6548 82.9492 60.8412C83.234 61.0276 83.479 61.2686 83.67 61.5502C83.861 61.8317 83.9942 62.1483 84.0619 62.4816C84.1297 62.8149 84.1306 63.1584 84.0647 63.492C83.9987 63.8257 83.8672 64.143 83.6778 64.4256C83.3 64.989 82.715 65.3808 82.0497 65.5157C81.3844 65.6506 80.6927 65.5178 80.1249 65.1461C79.5571 64.7745 79.1591 64.194 79.0174 63.5309C78.8757 62.8677 79.0018 62.1755 79.3682 61.6047ZM36.1711 50.1917C37.3971 49.5306 38.8089 49.2968 40.183 49.5273C41.557 49.7579 42.8148 50.4397 43.7572 51.4648C44.6996 52.4898 45.2728 53.7996 45.386 55.1867C45.4993 56.5738 45.1461 57.959 44.3824 59.123C43.8144 59.9938 43.0371 60.7086 42.1215 61.2023C41.2059 61.6959 40.181 61.9527 39.1406 61.949C37.7474 61.9479 36.3944 61.4827 35.2957 60.6271C34.197 59.7714 33.4154 58.5741 33.0746 57.2248C32.7338 55.8755 32.8533 54.4512 33.4141 53.1773C33.975 51.9034 34.9452 50.8528 36.1711 50.1917ZM51.9891 49.7214C53.4096 49.2647 54.9468 49.3297 56.3236 49.9049C57.7003 50.48 58.8261 51.5275 59.4981 52.8584C61.0435 55.9392 59.8047 59.6887 56.7263 61.2451C55.8523 61.6879 54.8872 61.9219 53.9072 61.9287C52.415 61.9286 50.9718 61.3962 49.8378 60.4273C48.7038 59.4585 47.9535 58.1169 47.7221 56.6444C47.4908 55.1718 47.7935 53.6652 48.5759 52.3959C49.3582 51.1266 50.5686 50.1782 51.9891 49.7214ZM21.8393 53.1941C22.1945 52.7819 22.6367 52.4535 23.1342 52.2325C23.6318 52.0116 24.1721 51.9036 24.7165 51.9164C25.2608 51.9292 25.7955 52.0625 26.282 52.3066C26.7686 52.5506 27.1949 52.8995 27.5302 53.3279C27.8655 53.7564 28.1015 54.2538 28.2212 54.7844C28.3409 55.3149 28.3413 55.8654 28.2224 56.3961C28.1034 56.9268 27.8681 57.4246 27.5334 57.8535C27.1986 58.2824 26.7728 58.6319 26.2866 58.8766C25.5262 59.2594 24.6565 59.3671 23.8255 59.1812C22.9946 58.9954 22.2538 58.5276 21.7294 57.8575C21.2049 57.1874 20.9293 56.3565 20.9493 55.5062C20.9694 54.6559 21.2839 53.8388 21.8393 53.1941ZM65.3419 53.4771C66.4575 51.7793 68.74 51.3064 70.4394 52.4212C72.136 53.5381 72.6082 55.8147 71.4966 57.5133C70.3809 59.2108 68.0984 59.6836 66.399 58.5693C64.6992 57.4545 64.2259 55.175 65.3419 53.4771ZM25.4656 42.5994C25.661 39.1982 28.5455 36.5794 31.9538 36.7086C35.3614 36.8378 38.0387 39.6674 37.9763 43.0733C37.9145 46.4407 35.1957 49.147 31.8379 49.2109L31.7231 49.212H31.3809C27.962 49.0124 25.3421 46.1138 25.4772 42.7093L25.4827 42.5958L25.4656 42.5994ZM55.004 42.529C55.2023 39.0799 58.1627 36.4444 61.6157 36.6425C62.4359 36.6845 63.2396 36.8893 63.9798 37.2448C64.7199 37.6004 65.3818 38.0996 65.9268 38.7134C66.7244 39.6053 67.2492 40.707 67.4392 41.8877C67.6291 43.0685 67.4761 44.2789 66.9983 45.3755C66.5205 46.472 65.738 47.4088 64.7435 48.0747C63.749 48.7406 62.5842 49.1077 61.3872 49.1325L61.2597 49.1339H60.8968C57.4438 48.9358 54.8053 45.9788 55.0036 42.5297L55.004 42.529ZM10.5685 42.8135C10.6155 41.9866 10.9895 41.2121 11.608 40.6605C12.2266 40.1089 13.0392 39.8253 13.8671 39.8721C14.6953 39.9197 15.4708 40.2938 16.023 40.9121C16.5753 41.5305 16.8593 42.3425 16.8126 43.1698C16.7653 43.9969 16.391 44.7713 15.772 45.3228C15.1531 45.8742 14.3402 46.1574 13.5122 46.1102C12.6842 46.0629 11.9088 45.689 11.3568 45.0708C10.8048 44.4525 10.5212 43.6406 10.5685 42.8135ZM76.184 42.672C76.2354 41.8481 76.6112 41.078 77.2293 40.5301C77.8474 39.9821 78.6575 39.7008 79.4825 39.7477C80.3076 39.7945 81.0806 40.1657 81.6325 40.7801C82.1845 41.3945 82.4705 42.2021 82.4281 43.0265C82.3805 43.8538 82.006 44.6285 81.387 45.1802C80.7679 45.732 79.9549 46.0157 79.1266 45.969C78.2988 45.9215 77.5237 45.5475 76.9719 44.9293C76.4201 44.3111 76.1367 43.4992 76.184 42.6723V42.672ZM2.05937 41.0075L2.13493 41.0104C2.40047 41.0248 2.66054 41.0915 2.90021 41.2066C3.13988 41.3217 3.35442 41.4829 3.53151 41.6811C3.7086 41.8792 3.84474 42.1104 3.93213 42.3613C4.01951 42.6122 4.05641 42.8778 4.0407 43.143C4.01791 43.5384 3.8792 43.9185 3.64185 44.2358C3.40449 44.5531 3.07896 44.7937 2.70576 44.9276C2.33257 45.0616 1.92818 45.0829 1.54291 44.9891C1.15765 44.8952 0.808518 44.6903 0.538962 44.3998C0.269407 44.1092 0.0913276 43.746 0.0268816 43.3551C-0.0375645 42.9643 0.014468 42.5631 0.176505 42.2016C0.338542 41.8401 0.60343 41.5341 0.938209 41.3218C1.27299 41.1095 1.66288 41.0002 2.05937 41.0075ZM91.0066 40.7988L91.0909 40.8021C91.6268 40.8338 92.1283 41.0764 92.4855 41.4768C92.8427 41.8771 93.0265 42.4025 92.9967 42.938C92.9738 43.3338 92.835 43.7142 92.5975 44.0319C92.36 44.3497 92.0343 44.5906 91.6608 44.725C91.2873 44.8593 90.8825 44.881 90.4968 44.7874C90.111 44.6939 89.7613 44.4891 89.4911 44.1987C89.2209 43.9082 89.0421 43.5449 88.9769 43.1537C88.9117 42.7626 88.9631 42.361 89.1245 41.9987C89.286 41.6365 89.5505 41.3297 89.8851 41.1163C90.2197 40.903 90.6097 40.7926 91.0066 40.7988ZM39.0861 23.9225C40.2447 23.917 41.382 24.2338 42.3706 24.8374C43.3592 25.441 44.1601 26.3075 44.6835 27.34C45.1671 28.2941 45.3978 29.3561 45.3537 30.4246C45.3095 31.4932 44.9919 32.5325 44.4311 33.4436C43.8704 34.3546 43.0853 35.1068 42.1507 35.6286C41.2161 36.1503 40.1633 36.4241 39.0926 36.4237C37.9315 36.4273 36.7923 36.1071 35.8035 35.4991C34.8146 34.8911 34.0153 34.0194 33.4955 32.9823C33.0175 32.0291 32.7913 30.9697 32.8382 29.9046C32.8852 28.8395 33.2038 27.8041 33.7638 26.8966C34.3238 25.989 35.1067 25.2394 36.0382 24.7189C36.9696 24.1984 38.0188 23.9243 39.0861 23.9225ZM53.856 23.8783C55.2491 23.8801 56.6018 24.3459 57.7 25.2021C58.7982 26.0582 59.5792 27.2558 59.9194 28.6052C60.2595 29.9545 60.1395 31.3787 59.5781 32.6523C59.0168 33.9258 58.0463 34.976 56.8202 35.6366C55.5941 36.2972 54.1825 36.5306 52.8087 36.2996C51.4349 36.0687 50.1775 35.3867 49.2354 34.3617C48.2933 33.3366 47.7204 32.027 47.6073 30.64C47.4942 29.2531 47.8474 27.8681 48.611 26.7043C49.1817 25.8354 49.9601 25.1222 50.8757 24.6288C51.7914 24.1354 52.8156 23.8775 53.856 23.8783ZM21.4967 28.3245C22.6116 26.6263 24.8934 26.152 26.5936 27.2656C28.2937 28.3789 28.7685 30.6585 27.6544 32.3567C26.5394 34.0549 24.2577 34.5295 22.5575 33.4163C22.1528 33.1519 21.8042 32.8103 21.5317 32.4112C21.2593 32.012 21.0683 31.5631 20.9698 31.0902C20.8713 30.6172 20.8671 30.1295 20.9575 29.6549C21.0479 29.1803 21.2312 28.7282 21.4967 28.3245ZM66.7136 26.9608C67.1453 26.7431 67.6158 26.6125 68.0981 26.5766C68.5803 26.5407 69.065 26.6001 69.5242 26.7515C69.9835 26.9029 70.4083 27.1433 70.7744 27.4589C71.1405 27.7745 71.4408 28.1592 71.6579 28.5908C72.5723 30.4048 71.8413 32.6158 70.0257 33.5295C68.2096 34.4428 65.9961 33.7127 65.0814 31.8991C64.167 30.0851 64.8979 27.8742 66.7136 26.9605V26.9608ZM9.31991 21.414C9.69456 20.8432 10.2809 20.4445 10.9499 20.3055C11.2811 20.2366 11.6227 20.2337 11.9551 20.2967C12.2875 20.3597 12.6042 20.4875 12.8871 20.6728C13.1701 20.8581 13.4137 21.0973 13.6042 21.3766C13.7946 21.656 13.928 21.9701 13.9969 22.3009C14.0659 22.6318 14.0688 22.973 14.0057 23.305C13.9426 23.6371 13.8147 23.9534 13.6292 24.236C13.2545 24.8068 12.6682 25.2056 11.9992 25.3446C11.3302 25.4836 10.6334 25.3514 10.0619 24.9772C9.49047 24.603 9.09126 24.0173 8.95211 23.3491C8.81296 22.6809 8.94526 21.9848 9.31991 21.414ZM80.2731 20.3726C80.8821 20.0749 81.5841 20.029 82.2267 20.2449C82.8694 20.4608 83.4009 20.921 83.7061 21.5258C84.0113 22.1306 84.0655 22.8311 83.857 23.4755C83.6485 24.12 83.1941 24.6563 82.5923 24.9683C81.9815 25.2752 81.2738 25.3273 80.6245 25.1132C79.9753 24.8992 79.4377 24.4365 79.1299 23.8267C78.823 23.2172 78.7711 22.5108 78.9855 21.8631C79.1999 21.2153 79.663 20.679 80.2731 20.3722V20.3726ZM42.7639 17.4566C42.8802 15.4299 44.6196 13.8808 46.6489 13.9962C48.6778 14.1116 50.2294 15.848 50.1146 17.8753C50.0001 19.9019 48.2626 21.4525 46.2333 21.3389C44.2022 21.2231 42.6491 19.4854 42.7639 17.4566ZM28.6236 11.786C28.9903 11.6014 29.3899 11.4908 29.7994 11.4605C30.209 11.4301 30.6205 11.4806 31.0105 11.6091C31.4005 11.7377 31.7613 11.9416 32.0724 12.2095C32.3835 12.4773 32.6387 12.8036 32.8235 13.17C33.0083 13.5363 33.119 13.9354 33.1494 14.3445C33.1798 14.7536 33.1292 15.1646 33.0005 15.5542C32.8719 15.9437 32.6677 16.3042 32.3995 16.6149C32.1314 16.9256 31.8047 17.1805 31.4379 17.3651C30.6972 17.7379 29.8387 17.8015 29.051 17.542C28.2634 17.2824 27.6112 16.721 27.238 15.9811C26.8648 15.2413 26.8011 14.3837 27.061 13.5969C27.3208 12.8102 27.8829 12.1588 28.6236 11.786ZM60.2131 12.7882C60.5518 12.2707 61.0365 11.8652 61.6059 11.6228C62.1754 11.3804 62.804 11.3121 63.4123 11.4264C64.0206 11.5408 64.5813 11.8328 65.0235 12.2654C65.4657 12.698 65.7696 13.2518 65.8968 13.8569C66.024 14.462 65.9687 15.0912 65.7379 15.6649C65.5072 16.2386 65.1114 16.7311 64.6005 17.0802C64.0896 17.4292 63.4865 17.6192 62.8676 17.626C62.2486 17.6328 61.6416 17.4561 61.1231 17.1184C60.7782 16.8942 60.481 16.6042 60.2485 16.2651C60.016 15.9259 59.8528 15.5443 59.7682 15.142C59.6837 14.7397 59.6795 14.3247 59.7558 13.9208C59.8321 13.5169 59.9875 13.132 60.2131 12.7882ZM23.2485 2.6925C23.7267 2.4533 24.2803 2.41277 24.7883 2.57977C25.2964 2.74676 25.7177 3.10772 25.9603 3.58386C26.2029 4.05999 26.247 4.61265 26.0832 5.12121C25.9193 5.62976 25.5607 6.05292 25.0856 6.29833C24.8472 6.42007 24.5871 6.49348 24.3202 6.51435C24.0533 6.53521 23.7849 6.50311 23.5305 6.4199C23.2761 6.33669 23.0407 6.204 22.8378 6.0295C22.635 5.85499 22.4687 5.64211 22.3486 5.40313C22.1091 4.92432 22.0693 4.3702 22.238 3.86213C22.4066 3.35407 22.77 2.93349 23.2485 2.6925ZM66.9563 3.2876C67.1018 3.06521 67.2898 2.87362 67.5094 2.72378C67.7291 2.57395 67.9761 2.46879 68.2365 2.41432C68.4968 2.35985 68.7654 2.35714 69.0267 2.40633C69.2881 2.45552 69.5373 2.55566 69.7599 2.70102C69.9826 2.84639 70.1744 3.03413 70.3244 3.25354C70.4744 3.47294 70.5797 3.71971 70.6342 3.97976C70.6887 4.23981 70.6914 4.50803 70.6422 4.76913C70.5929 5.03022 70.4927 5.27907 70.3472 5.50147C70.0533 5.95061 69.5928 6.26476 69.0671 6.3748C68.5414 6.48484 67.9934 6.38175 67.5437 6.08823C67.0941 5.7947 66.7796 5.33477 66.6694 4.80962C66.5592 4.28447 66.6624 3.73711 66.9563 3.28796V3.2876ZM45.5569 0.145154C45.8774 0.0283958 46.218 -0.0235922 46.5589 -0.00779233C46.8997 0.00800758 47.234 0.0912807 47.5424 0.237193C47.8508 0.383105 48.1271 0.588749 48.3552 0.842186C48.5834 1.09562 48.7588 1.39181 48.8715 1.71354C48.9841 2.03527 49.0316 2.37614 49.0112 2.71637C48.9909 3.05659 48.9031 3.38939 48.7529 3.69545C48.6028 4.0015 48.3932 4.27471 48.1365 4.49921C47.8798 4.72371 47.5809 4.89504 47.2574 5.00325C46.615 5.21805 45.9139 5.17154 45.3056 4.87378C44.6974 4.57602 44.231 4.05097 44.0074 3.41228C43.7839 2.77359 43.8211 2.07266 44.1111 1.46119C44.4011 0.849729 44.9205 0.376936 45.5569 0.145154Z" fill="#EAB359"/>
</g>
<defs>
<clipPath id="clip0_1121_1054">
<rect width="93" height="86" fill="white"/>
</clipPath>
</defs>
</svg>
