<svg width="249" height="52" viewBox="0 0 249 52" fill="none" xmlns="http://www.w3.org/2000/svg">
<path fill-rule="evenodd" clip-rule="evenodd" d="M27.3707 8.8107C27.3707 4.15058 25.212 0.372803 22.5491 0.372803C19.8862 0.372803 17.7274 4.15058 17.7274 8.8107C17.7274 10.5272 18.0203 11.5788 18.5234 12.2225C16.0145 12.9883 13.7861 14.4518 12.0392 16.401C5.92148 16.1103 2.13511 17.9678 0.326859 20.0918C-0.419643 20.9686 0.196835 22.1779 1.32473 22.4103C4.77439 23.121 7.12401 22.9445 8.75365 22.2868C8.31869 23.74 8.0841 25.2871 8.0841 26.892C8.0841 29.9443 9.24226 33.5244 10.9869 36.8503C6.18166 39.377 4.55439 42.383 4.26065 44.8748C4.12584 46.0185 5.26212 46.7787 6.37216 46.4722C11.2166 45.1345 13.4903 43.563 14.1636 41.7996C16.0928 44.2825 18.2395 46.2543 20.2208 47.1913C20.2224 47.3056 20.244 47.4225 20.2884 47.5378L21.6158 50.9864C21.9446 51.8408 23.1534 51.8408 23.4823 50.9864L24.8097 47.5378C24.8541 47.4225 24.8756 47.3056 24.8772 47.1913C26.9471 46.2125 29.1973 44.1044 31.1916 41.464C31.697 43.364 33.9418 45.0502 39.0915 46.4722C40.2015 46.7787 41.3378 46.0185 41.203 44.8748C40.9035 42.3338 39.2173 39.2583 34.1888 36.7015C35.8901 33.4178 37.014 29.8988 37.014 26.892C37.014 25.2385 36.765 23.6464 36.3045 22.1552C37.942 22.9184 40.3668 23.1663 44.0365 22.4103C45.1644 22.1779 45.7809 20.9686 45.0344 20.0918C43.2015 17.9388 39.3362 16.0598 33.0706 16.4141C31.3219 14.4584 29.0893 12.99 26.5748 12.2225C27.0779 11.5788 27.3707 10.5272 27.3707 8.8107ZM35.014 26.892C35.014 30.5327 33.0474 35.3541 30.2515 39.3557C28.8743 41.3269 27.3665 42.9947 25.9305 44.1472C24.4388 45.3445 23.276 45.7858 22.5491 45.7858C21.8221 45.7858 20.6594 45.3445 19.1676 44.1472C17.7316 42.9947 16.2238 41.3269 14.8466 39.3557C12.0507 35.3541 10.0841 30.5327 10.0841 26.892C10.0841 22.1579 12.3897 18.0707 15.8172 15.7275L18.481 20.4632L15.3168 26.0885L18.7186 32.136L16.8699 35.2171L16.5612 35.7316L16.8699 36.2461L19.2808 40.2641L20.9958 39.2351L18.8936 35.7316L20.7044 32.7135H24.3937L26.2045 35.7316L24.1024 39.2351L25.8174 40.2641L28.2282 36.2461L28.5369 35.7316L28.2282 35.2171L26.3798 32.1364L29.7818 26.0885L26.6175 20.463L29.2812 15.7276C32.7085 18.0709 35.014 22.158 35.014 26.892ZM27.8979 14.9084C26.2692 14.083 24.4525 13.6234 22.5491 13.6234C20.6457 13.6234 18.8291 14.083 17.2004 14.9083L19.8729 19.6594H25.2255L27.8979 14.9084ZM17.6115 26.0885L20.1028 30.5173H24.9958L27.4871 26.0885L24.9958 21.6596H20.1028L17.6115 26.0885Z" fill="url(#paint0_linear_1142_87)"/>
<path d="M65.2653 17.2801H61.3613V13.0241H74.8973V17.2801H71.0253V38.9441H65.2653V17.2801Z" fill="white"/>
<path d="M83.3873 39.3281C81.446 39.3281 79.91 39.0188 78.7793 38.4001C77.6487 37.7601 76.8487 36.8321 76.3793 35.6161C75.9313 34.3788 75.7073 32.8108 75.7073 30.9121V13.0241H81.3713V31.7761C81.3713 32.8215 81.4993 33.6535 81.7553 34.2721C82.0327 34.8908 82.5767 35.2001 83.3873 35.2001C84.198 35.2001 84.7313 34.8908 84.9873 34.2721C85.2433 33.6535 85.3713 32.8215 85.3713 31.7761V13.0241H91.0673V30.9121C91.0673 32.8108 90.8327 34.3788 90.3633 35.6161C89.894 36.8321 89.094 37.7601 87.9633 38.4001C86.854 39.0188 85.3287 39.3281 83.3873 39.3281Z" fill="white"/>
<path d="M93.4318 13.0241H100.568C103.405 13.0241 105.549 13.5255 107 14.5281C108.45 15.5308 109.176 17.3121 109.176 19.8721C109.176 21.6001 108.952 22.9761 108.504 24.0001C108.056 25.0241 107.224 25.8241 106.008 26.4001L109.56 38.9441H103.64L100.792 27.3281H99.1598V38.9441H93.4318V13.0241ZM100.76 24.0321C101.912 24.0321 102.712 23.7335 103.16 23.1361C103.629 22.5175 103.864 21.6001 103.864 20.3841C103.864 19.2108 103.65 18.3361 103.224 17.7601C102.797 17.1628 102.061 16.8641 101.016 16.8641H99.1598V24.0321H100.76Z" fill="white"/>
<path d="M111.339 13.0241H115.371L120.683 25.5041V13.0241H125.419V38.9441H121.547L116.235 25.5041V38.9441H111.339V13.0241Z" fill="white"/>
<path d="M130.333 17.2801H126.429V13.0241H139.965V17.2801H136.093V38.9441H130.333V17.2801Z" fill="white"/>
<path d="M150.21 17.2801H146.306V13.0241H159.842V17.2801H155.97V38.9441H150.21V17.2801Z" fill="white"/>
<path d="M168.332 39.3281C166.391 39.3281 164.855 39.0188 163.724 38.4001C162.594 37.7601 161.794 36.8321 161.324 35.6161C160.876 34.3788 160.652 32.8108 160.652 30.9121V13.0241H166.316V31.7761C166.316 32.8215 166.444 33.6535 166.7 34.2721C166.978 34.8908 167.522 35.2001 168.332 35.2001C169.143 35.2001 169.676 34.8908 169.932 34.2721C170.188 33.6535 170.316 32.8215 170.316 31.7761V13.0241H176.012V30.9121C176.012 32.8108 175.778 34.3788 175.308 35.6161C174.839 36.8321 174.039 37.7601 172.908 38.4001C171.799 39.0188 170.274 39.3281 168.332 39.3281Z" fill="white"/>
<path d="M178.377 13.0241H185.513C188.35 13.0241 190.494 13.5255 191.945 14.5281C193.395 15.5308 194.121 17.3121 194.121 19.8721C194.121 21.6001 193.897 22.9761 193.449 24.0001C193.001 25.0241 192.169 25.8241 190.953 26.4001L194.505 38.9441H188.585L185.737 27.3281H184.105V38.9441H178.377V13.0241ZM185.705 24.0321C186.857 24.0321 187.657 23.7335 188.105 23.1361C188.574 22.5175 188.809 21.6001 188.809 20.3841C188.809 19.2108 188.595 18.3361 188.169 17.7601C187.742 17.1628 187.006 16.8641 185.961 16.8641H184.105V24.0321H185.705Z" fill="white"/>
<path d="M198.37 17.2801H194.466V13.0241H208.002V17.2801H204.13V38.9441H198.37V17.2801Z" fill="white"/>
<path d="M209.004 13.0241H214.732V35.0721H220.684V38.9441H209.004V13.0241Z" fill="white"/>
<path d="M221.912 13.0241H233.56V16.9281H227.64V23.3601H232.152V27.3281H227.64V35.0721H233.624V38.9441H221.912V13.0241Z" fill="white"/>
<path d="M241.824 39.3281C239.35 39.3281 237.504 38.6775 236.288 37.3761C235.094 36.0535 234.454 33.9628 234.368 31.1041L239.264 30.3681C239.286 32.0108 239.478 33.1948 239.84 33.9201C240.224 34.6241 240.79 34.9761 241.536 34.9761C242.496 34.9761 242.976 34.3468 242.976 33.0881C242.976 32.0855 242.742 31.2215 242.272 30.4961C241.824 29.7708 241.11 28.9921 240.128 28.1601L237.888 26.2081C236.779 25.2695 235.915 24.2775 235.296 23.2321C234.699 22.1655 234.4 20.9068 234.4 19.4561C234.4 17.2801 235.04 15.6055 236.32 14.4321C237.622 13.2588 239.403 12.6721 241.664 12.6721C244.118 12.6721 245.782 13.3868 246.656 14.8161C247.552 16.2455 248.032 17.9841 248.096 20.0321L243.168 20.6401C243.126 19.2961 242.998 18.3361 242.784 17.7601C242.592 17.1628 242.155 16.8641 241.472 16.8641C240.982 16.8641 240.598 17.0775 240.32 17.5041C240.064 17.9095 239.936 18.3681 239.936 18.8801C239.936 19.7548 240.128 20.4908 240.512 21.0881C240.918 21.6855 241.558 22.3681 242.432 23.1361L244.576 25.0241C245.856 26.1121 246.848 27.2641 247.552 28.4801C248.256 29.6961 248.608 31.1361 248.608 32.8001C248.608 34.0161 248.32 35.1255 247.744 36.1281C247.19 37.1095 246.4 37.8881 245.376 38.4641C244.352 39.0401 243.168 39.3281 241.824 39.3281Z" fill="white"/>
<defs>
<linearGradient id="paint0_linear_1142_87" x1="22.7535" y1="-8.30631e-09" x2="22.7535" y2="52" gradientUnits="userSpaceOnUse">
<stop stop-color="#F1DD71"/>
<stop offset="1" stop-color="#9B9D4D"/>
</linearGradient>
</defs>
</svg>
