<svg width="32" height="32" viewBox="0 0 32 32" fill="none" xmlns="http://www.w3.org/2000/svg">
<path fill-rule="evenodd" clip-rule="evenodd" d="M16.0003 0C20.3197 0 24.1703 2.00736 26.67 5.1401C24.1703 8.27284 20.3197 10.2802 16.0003 10.2802C11.681 10.2802 7.83043 8.27284 5.33073 5.1401C7.83043 2.00736 11.681 0 16.0003 0ZM10.2802 16.0001C10.2802 20.3194 8.27284 24.17 5.1401 26.6697C2.00736 24.17 0 20.3194 0 16.0001C0 11.6807 2.00736 7.83014 5.1401 5.33044C8.27284 7.83014 10.2802 11.6807 10.2802 16.0001ZM31.9998 16.0001C31.9998 20.3194 29.9925 24.17 26.8597 26.6697C23.727 24.17 21.7196 20.3194 21.7196 16.0001C21.7196 11.6807 23.727 7.83014 26.8597 5.33044C29.9925 7.83014 31.9998 11.6807 31.9998 16.0001ZM26.67 26.8599C24.1703 23.7272 20.3197 21.7198 16.0003 21.7198C11.681 21.7198 7.83043 23.7272 5.33073 26.8599C7.83043 29.9927 11.681 32 16.0003 32C20.3197 32 24.1703 29.9927 26.67 26.8599Z" fill="#757734"/>
</svg>
